<svg style="fill: currentColor;" viewBox="0 0 297.9 70.7" xmlns="http://www.w3.org/2000/svg"><path d="M11.3 5.6H5.4V30h4.2V20H12c3.8 0 6.4-3 6.4-7.5.1-4.3-2.6-6.9-7.1-6.9zm-1.6 4h1.6c2 0 2.9.9 2.9 2.9 0 1.5-.4 3.4-2.3 3.4H9.8V9.6zm41.5-4l-6.1 23.9 4.2 1.1 1.8-7.6h4.5l1.8 7.6 4.2-1.1-6.1-23.9zM54.6 19h-2.5l1.3-5.3zm42.6-3.4c-3.4-2-3.4-2.3-3.4-3.6 0-1 .3-2.6 2-2.6.4 0 1.5 0 2.1 2.5l.2.9 4.1-.6-.2-1c-.8-3.8-3-5.9-6.2-5.9-3.5 0-6.2 2.9-6.2 6.7 0 3.9 2.3 5.3 4.8 6.7l.2.1c2.4 1.4 3.5 2.1 3.5 4.3 0 1.4-.4 3-2.3 3-1.7 0-2.2-.7-2.6-3.5l-.1-1-4.2.6.1 1c.4 4.7 2.7 7.1 6.7 7.1s6.6-2.9 6.6-7.3c0-4-2.2-5.7-5.1-7.4zM138 26.1c-1.7 0-2.2-.7-2.6-3.5l-.1-1-4.2.6.1 1c.4 4.7 2.7 7.1 6.7 7.1s6.6-2.9 6.6-7.3c0-4-2.2-5.6-5.1-7.3-3.4-2-3.4-2.3-3.4-3.6 0-1 .3-2.6 2-2.6.4 0 1.5 0 2.1 2.5l.2.9 4.1-.6-.2-1c-.8-3.8-3-5.9-6.2-5.9-3.5 0-6.2 2.9-6.2 6.7 0 3.9 2.3 5.3 4.8 6.7l.2.1c2.4 1.4 3.5 2.1 3.5 4.3 0 1.3-.4 2.9-2.3 2.9zm37-16.5h3v16.3h-3v4h10.3v-4h-3V9.6h3v-4H175zm47.4 20.6c2.2 0 5-.9 6.4-5.3.8-2.6.8-5.5.8-7.1v-.3c0-1.6 0-4.5-.8-7.1-1.4-4.3-4.2-5.2-6.4-5.2-7.2 0-7.2 9.4-7.2 12.5v.3c0 2.5 0 7.8 2.8 10.5 1.1 1.2 2.6 1.7 4.4 1.7zm0-20.8c.9 0 1.9.3 2.4 2.2.4 1.6.4 3.8.4 5.8v.4c0 1.8 0 4.1-.4 5.9-.6 2.2-1.6 2.4-2.4 2.4-1.8 0-2.9-1.4-2.9-8.4v-.2c0-1.6 0-3.8.4-5.6.7-2.2 1.7-2.5 2.5-2.5zm39.7 6.6l4.9 13.9h4.5V5.6h-4.2v13.9l-4.9-13.9h-4.6v24.3h4.3zM138.8 49.4c.4 0 1.5 0 2.1 1.9l.3 1.2 4-2.1-.3-.8c-.9-2.8-2.9-4.3-5.7-4.3-4.9 0-8.5 4.4-10.1 12.3-1.1 5.1-.7 8.7.9 10.8 1 1.3 2.5 1.9 4.4 1.9 2.6 0 5.2-1.4 7.3-4l.7-.8-3.1-2.5-.6.8c-1.3 1.6-2.7 2.4-3.8 2.4-.8 0-1.1-.3-1.3-.6-.6-.8-1.1-2.7-.1-7.6 1.1-5.6 2.9-8.6 5.3-8.6zm40.4-3.8l-11.4 23.8 4 1.2 3.5-7.5h4.5l.1 7.6 4.4-1.1-.8-24zM177.3 59l2.4-5.2.1 5.2zm44.9-6.1l-.8-7.3h-4.5l-6.4 24.3h4.5l3.6-14.2 1 9 4.9-8.6-2.9 13.8h4.4l5.1-24.3h-4.7zm49.4-5.4c-1-1.3-2.7-1.9-5-1.9h-5.7l-6 24.4h4.3l2.4-9.9h2.6c3.8 0 6.9-2.8 8-7.2.6-2.3.4-4.1-.6-5.4zm-9 8.5l1.6-6.4h1.8c.6 0 1.5.1 1.8.6.4.5.3 1.4.1 2.1-.3 1.4-1.2 3.6-3.4 3.7z"/></svg>