<svg xmlns="http://www.w3.org/2000/svg" xmlns:xlink="http://www.w3.org/1999/xlink">
    <symbol viewBox="0 0 20 20" id="checkmark"><path d="M0 11l2-2 5 5L18 3l2 2L7 18z" fill-rule="evenodd"/></symbol>
    <symbol viewBox="0 0 16 16" id="google"><path d="M8.16 6.857V9.6h4.537c-.183 1.177-1.37 3.45-4.537 3.45-2.73 0-4.96-2.26-4.96-5.05s2.23-5.05 4.96-5.05c1.554 0 2.594.66 3.19 1.233l2.17-2.092C12.126.79 10.32 0 8.16 0c-4.423 0-8 3.577-8 8s3.577 8 8 8c4.617 0 7.68-3.246 7.68-7.817 0-.526-.057-.926-.126-1.326H8.16z" fill-rule="evenodd" clip-rule="evenodd" stroke-linejoin="round" stroke-miterlimit="1.414"/></symbol>
    <symbol viewBox="0 0 16 16" id="search"><path d="M15.504 13.616l-3.79-3.223c-0.392-0.353-0.811-0.514-1.149-0.499 0.895-1.048 1.435-2.407 1.435-3.893 0-3.314-2.686-6-6-6s-6 2.686-6 6 2.686 6 6 6c1.486 0 2.845-0.54 3.893-1.435-0.016 0.338 0.146 0.757 0.499 1.149l3.223 3.79c0.552 0.613 1.453 0.665 2.003 0.115s0.498-1.452-0.115-2.003zM6 10c-2.209 0-4-1.791-4-4s1.791-4 4-4 4 1.791 4 4-1.791 4-4 4z"></path></symbol>
</svg>
